<?xml version="1.0" encoding="UTF-8" standalone="no"?><!-- Generator: Gravit.io --><svg xmlns="http://www.w3.org/2000/svg" xmlns:xlink="http://www.w3.org/1999/xlink" style="isolation:isolate" viewBox="0 0 429.986 429.986" width="429.986pt" height="429.986pt"><defs><clipPath id="_clipPath_CMJ0DvdMkixurWzOCtSRDu67Eie6bRTK"><rect width="429.986" height="429.986"/></clipPath></defs><g clip-path="url(#_clipPath_CMJ0DvdMkixurWzOCtSRDu67Eie6bRTK)"><clipPath id="_clipPath_qwE9iO4Xy1VVEX07JEpYnXfhEPdaIlKT"><rect x="0" y="0" width="429.986" height="429.986" transform="matrix(1,0,0,1,0,0)" fill="rgb(255,255,255)"/></clipPath><g clip-path="url(#_clipPath_qwE9iO4Xy1VVEX07JEpYnXfhEPdaIlKT)"><g><path d=" M 429.986 111.996 L 429.986 420.986 C 429.986 425.957 425.957 429.986 420.986 429.986 L 9 429.986 C 4.029 429.986 0 425.957 0 420.986 L 0 368.073 C 0 363.102 4.029 359.073 9 359.073 C 13.971 359.073 18 363.102 18 368.073 L 18 411.986 L 102.997 411.986 L 102.997 369.488 C 102.997 364.517 107.026 360.488 111.997 360.488 C 116.968 360.488 120.997 364.517 120.997 369.488 L 120.997 411.986 L 411.986 411.986 L 411.986 378.488 L 317.99 378.488 C 313.019 378.488 308.99 374.459 308.99 369.488 C 308.99 364.517 313.019 360.488 317.99 360.488 L 411.986 360.488 L 411.986 120.996 L 369.488 120.996 C 364.517 120.996 360.488 116.967 360.488 111.996 C 360.488 107.025 364.517 102.996 369.488 102.996 L 420.986 102.996 C 425.957 102.996 429.986 107.025 429.986 111.996 Z  M 111.997 308.989 C 107.026 308.989 102.997 313.018 102.997 317.989 C 102.997 322.96 107.026 326.989 111.997 326.989 L 214.993 326.989 C 219.964 326.989 223.993 322.96 223.993 317.989 L 223.993 223.993 L 266.492 223.993 C 271.463 223.993 275.492 219.964 275.492 214.993 C 275.492 210.022 271.463 205.993 266.492 205.993 L 172.496 205.993 L 172.496 163.495 C 172.496 158.524 168.467 154.495 163.496 154.495 C 158.525 154.495 154.496 158.524 154.496 163.495 L 154.496 205.993 L 111.997 205.993 C 107.026 205.993 102.997 210.022 102.997 214.993 C 102.997 219.964 107.026 223.993 111.997 223.993 L 205.993 223.993 L 205.993 308.989 L 111.997 308.989 L 111.997 308.989 L 111.997 308.989 Z  M 420.986 0 L 9 0 C 4.029 0 0 4.029 0 9 L 0 317.989 C 0 322.96 4.029 326.989 9 326.989 L 51.498 326.989 L 51.498 369.485 C 51.498 374.456 55.527 378.485 60.498 378.485 C 65.469 378.485 69.498 374.456 69.498 369.485 L 69.498 275.491 L 163.496 275.491 C 168.467 275.491 172.496 271.462 172.496 266.491 C 172.496 261.52 168.467 257.491 163.496 257.491 L 69.498 257.491 L 69.498 214.993 C 69.498 210.022 65.469 205.993 60.498 205.993 C 55.527 205.993 51.498 210.022 51.498 214.993 L 51.498 308.989 L 18 308.989 L 18 120.996 L 60.498 120.996 C 65.469 120.996 69.498 116.967 69.498 111.996 C 69.498 107.025 65.469 102.996 60.498 102.996 L 18 102.996 L 18 69.498 L 102.997 69.498 L 102.997 154.495 L 59.145 154.495 C 54.174 154.495 50.145 158.524 50.145 163.495 C 50.145 168.466 54.174 172.495 59.145 172.495 L 111.997 172.495 C 116.968 172.495 120.997 168.466 120.997 163.495 L 120.997 60.498 C 120.997 55.527 116.968 51.498 111.997 51.498 L 18 51.498 L 18 18 L 154.496 18 L 154.496 111.996 C 154.496 116.967 158.525 120.996 163.496 120.996 L 266.492 120.996 C 271.463 120.996 275.492 116.967 275.492 111.996 C 275.492 107.025 271.463 102.996 266.492 102.996 L 172.496 102.996 L 172.496 18 L 411.986 18 L 411.986 51.498 L 214.993 51.498 C 210.022 51.498 205.993 55.527 205.993 60.498 C 205.993 65.469 210.022 69.498 214.993 69.498 L 308.99 69.498 L 308.991 154.495 L 214.993 154.495 C 210.022 154.495 205.993 158.524 205.993 163.495 C 205.993 168.466 210.022 172.495 214.993 172.495 L 308.991 172.495 L 308.991 214.743 C 308.989 214.826 308.988 214.909 308.988 214.993 C 308.988 215.077 308.989 215.16 308.991 215.243 L 308.992 266.496 C 308.992 271.467 313.021 275.496 317.992 275.496 L 360.49 275.496 L 360.488 317.988 C 360.488 322.959 364.517 326.989 369.487 326.989 C 369.488 326.989 369.488 326.989 369.488 326.989 C 374.459 326.989 378.488 322.96 378.488 317.99 L 378.491 266.496 C 378.491 264.109 377.543 261.82 375.855 260.132 C 374.167 258.444 371.877 257.496 369.491 257.496 L 326.992 257.496 L 326.992 223.993 L 369.486 223.993 C 371.873 223.993 374.162 223.045 375.85 221.357 C 377.538 219.669 378.486 217.379 378.486 214.993 L 378.484 163.495 C 378.484 158.524 374.454 154.495 369.484 154.495 C 364.513 154.495 360.484 158.524 360.484 163.495 L 360.486 205.993 L 326.991 205.993 L 326.99 69.498 L 420.986 69.498 C 425.957 69.498 429.986 65.469 429.986 60.498 L 429.986 9 C 429.986 4.029 425.957 0 420.986 0 Z  M 326.99 317.989 C 326.99 313.018 322.961 308.989 317.99 308.989 L 275.493 308.989 L 275.492 266.491 C 275.492 261.52 271.463 257.491 266.492 257.491 C 261.521 257.491 257.492 261.52 257.492 266.491 L 257.493 317.854 C 257.492 317.899 257.492 317.944 257.492 317.989 C 257.492 318.034 257.492 318.079 257.493 318.124 L 257.494 360.488 L 167.291 360.488 C 162.32 360.488 158.291 364.517 158.291 369.488 C 158.291 374.459 162.32 378.488 167.291 378.488 L 266.494 378.488 C 268.881 378.488 271.17 377.54 272.858 375.852 C 274.546 374.164 275.494 371.874 275.494 369.488 L 275.493 326.989 L 317.99 326.989 C 322.961 326.989 326.99 322.96 326.99 317.989 Z " fill="rgb(35,124,217)"/></g></g></g></svg>