<?xml version="1.0" encoding="UTF-8" standalone="no"?><!-- Generator: Gravit.io --><svg xmlns="http://www.w3.org/2000/svg" xmlns:xlink="http://www.w3.org/1999/xlink" style="isolation:isolate" viewBox="0 0 321.626 57.12" width="321.626pt" height="57.12pt"><defs><clipPath id="_clipPath_5qMVVk7h0UUvWQwuyyW3yRXa5eR7ZSuP"><rect width="321.626" height="57.12"/></clipPath></defs><g clip-path="url(#_clipPath_5qMVVk7h0UUvWQwuyyW3yRXa5eR7ZSuP)"><rect x="0" y="1.06" width="230" height="55" transform="matrix(1,0,0,1,0,0)" fill="none"/><rect x="0" y="1.06" width="230" height="55" transform="matrix(1,0,0,1,0,0)" fill="none"/><g><path d=" M 57.631 15.386 L 57.631 54.909 C 57.631 55.545 57.091 56.06 56.425 56.06 L 1.206 56.06 C 0.54 56.06 0 55.545 0 54.909 L 0 48.141 C 0 47.505 0.54 46.989 1.206 46.989 C 1.872 46.989 2.412 47.505 2.412 48.141 L 2.412 53.758 L 13.804 53.758 L 13.804 48.322 C 13.804 47.686 14.345 47.17 15.011 47.17 C 15.678 47.17 16.217 47.686 16.217 48.322 L 16.217 53.758 L 55.219 53.758 L 55.219 49.473 L 42.62 49.473 C 41.954 49.473 41.414 48.957 41.414 48.322 C 41.414 47.686 41.954 47.17 42.62 47.17 L 55.219 47.17 L 55.219 16.537 L 49.523 16.537 C 48.856 16.537 48.316 16.021 48.316 15.386 C 48.316 14.75 48.856 14.234 49.523 14.234 L 56.425 14.234 C 57.091 14.234 57.631 14.75 57.631 15.386 Z  M 15.011 40.583 C 14.345 40.583 13.804 41.098 13.804 41.734 C 13.804 42.37 14.345 42.886 15.011 42.886 L 28.815 42.886 C 29.482 42.886 30.022 42.37 30.022 41.734 L 30.022 29.711 L 35.718 29.711 C 36.384 29.711 36.924 29.196 36.924 28.56 C 36.924 27.924 36.384 27.409 35.718 27.409 L 23.119 27.409 L 23.119 21.973 C 23.119 21.337 22.58 20.822 21.913 20.822 C 21.247 20.822 20.707 21.337 20.707 21.973 L 20.707 27.409 L 15.011 27.409 C 14.345 27.409 13.804 27.924 13.804 28.56 C 13.804 29.196 14.345 29.711 15.011 29.711 L 27.609 29.711 L 27.609 40.583 L 15.011 40.583 Z  M 56.425 1.06 L 1.206 1.06 C 0.54 1.06 0 1.575 0 2.211 L 0 41.734 C 0 42.37 0.54 42.886 1.206 42.886 L 6.902 42.886 L 6.902 48.321 C 6.902 48.957 7.443 49.472 8.108 49.472 C 8.775 49.472 9.315 48.957 9.315 48.321 L 9.315 36.298 L 21.913 36.298 C 22.58 36.298 23.119 35.783 23.119 35.147 C 23.119 34.511 22.58 33.996 21.913 33.996 L 9.315 33.996 L 9.315 28.56 C 9.315 27.924 8.775 27.409 8.108 27.409 C 7.443 27.409 6.902 27.924 6.902 28.56 L 6.902 40.583 L 2.412 40.583 L 2.412 16.537 L 8.108 16.537 C 8.775 16.537 9.315 16.021 9.315 15.386 C 9.315 14.75 8.775 14.234 8.108 14.234 L 2.412 14.234 L 2.412 9.95 L 13.804 9.95 L 13.804 20.822 L 7.927 20.822 C 7.26 20.822 6.721 21.337 6.721 21.973 C 6.721 22.609 7.26 23.124 7.927 23.124 L 15.011 23.124 C 15.678 23.124 16.217 22.609 16.217 21.973 L 16.217 8.798 C 16.217 8.163 15.678 7.647 15.011 7.647 L 2.412 7.647 L 2.412 3.362 L 20.707 3.362 L 20.707 15.386 C 20.707 16.021 21.247 16.537 21.913 16.537 L 35.718 16.537 C 36.384 16.537 36.924 16.021 36.924 15.386 C 36.924 14.75 36.384 14.234 35.718 14.234 L 23.119 14.234 L 23.119 3.362 L 55.219 3.362 L 55.219 7.647 L 28.815 7.647 C 28.149 7.647 27.609 8.163 27.609 8.798 C 27.609 9.434 28.149 9.95 28.815 9.95 L 41.414 9.95 L 41.414 20.822 L 28.815 20.822 C 28.149 20.822 27.609 21.337 27.609 21.973 C 27.609 22.609 28.149 23.124 28.815 23.124 L 41.414 23.124 L 41.414 28.528 C 41.414 28.539 41.414 28.549 41.414 28.56 C 41.414 28.571 41.414 28.581 41.414 28.592 L 41.415 35.148 C 41.415 35.784 41.954 36.299 42.621 36.299 L 48.317 36.299 L 48.316 41.734 C 48.316 42.37 48.856 42.886 49.523 42.886 C 49.523 42.886 49.523 42.886 49.523 42.886 C 50.188 42.886 50.729 42.37 50.729 41.734 L 50.729 35.148 C 50.729 34.842 50.602 34.55 50.376 34.334 C 50.149 34.118 49.842 33.997 49.523 33.997 L 43.827 33.997 L 43.827 29.711 L 49.522 29.711 C 49.842 29.711 50.148 29.59 50.375 29.374 C 50.601 29.158 50.729 28.865 50.729 28.56 L 50.728 21.973 C 50.728 21.337 50.188 20.822 49.522 20.822 C 48.855 20.822 48.316 21.337 48.316 21.973 L 48.316 27.409 L 43.827 27.409 L 43.827 9.95 L 56.425 9.95 C 57.091 9.95 57.631 9.434 57.631 8.798 L 57.631 2.211 C 57.631 1.575 57.091 1.06 56.425 1.06 Z  M 43.827 41.734 C 43.827 41.098 43.286 40.583 42.62 40.583 L 36.925 40.583 L 36.924 35.147 C 36.924 34.511 36.384 33.996 35.718 33.996 C 35.051 33.996 34.512 34.511 34.512 35.147 L 34.512 41.717 C 34.512 41.723 34.512 41.729 34.512 41.734 C 34.512 41.74 34.512 41.746 34.512 41.752 L 34.512 47.17 L 22.422 47.17 C 21.756 47.17 21.216 47.686 21.216 48.322 C 21.216 48.957 21.756 49.473 22.422 49.473 L 35.719 49.473 C 36.038 49.473 36.345 49.352 36.572 49.136 C 36.797 48.92 36.925 48.627 36.925 48.322 L 36.925 42.886 L 42.62 42.886 C 43.286 42.886 43.827 42.37 43.827 41.734 Z " fill="rgb(35,124,217)"/></g><g clip-path="url(#_clipPath_sBGOQ5WfKaKE0FNq1W1cygONTSkdhGqB)"><text transform="matrix(1.048,0,0,1,73.56,45.12)" style="font-family:'Chivo';font-weight:700;font-size:48px;font-style:normal;font-variant-ligatures:none;fill:#FFFFFF;stroke:none;">MarisaBot</text></g><defs><clipPath id="_clipPath_sBGOQ5WfKaKE0FNq1W1cygONTSkdhGqB"><rect x="0" y="0" width="247" height="57.12" transform="matrix(1.048,0,0,1,73.56,0)"/></clipPath></defs></g></svg>